<svg xmlns="http://www.w3.org/2000/svg" xmlns:xlink="http://www.w3.org/1999/xlink" width="1000" zoomAndPan="magnify" viewBox="0 0 750 749.999995" height="1000" preserveAspectRatio="xMidYMid meet" version="1.0"><defs><clipPath id="8862e90699"><path d="M 50.070312 50.070312 L 699.570312 50.070312 L 699.570312 699.570312 L 50.070312 699.570312 Z M 50.070312 50.070312 " clip-rule="nonzero"/></clipPath><clipPath id="b2a83b43eb"><path d="M 374.996094 50.070312 C 195.542969 50.070312 50.070312 195.542969 50.070312 374.996094 C 50.070312 554.449219 195.542969 699.921875 374.996094 699.921875 C 554.449219 699.921875 699.921875 554.449219 699.921875 374.996094 C 699.921875 195.542969 554.449219 50.070312 374.996094 50.070312 Z M 374.996094 50.070312 " clip-rule="nonzero"/></clipPath></defs><rect x="-75" width="900" fill="#ffffff" y="-74.999999" height="899.999994" fill-opacity="1"/><rect x="-75" width="900" fill="#fef9ee" y="-74.999999" height="899.999994" fill-opacity="1"/><g clip-path="url(#8862e90699)"><g clip-path="url(#b2a83b43eb)"><path stroke-linecap="butt" transform="matrix(0.75, 0, 0, 0.75, 50.070223, 50.070241)" fill="none" stroke-linejoin="miter" d="M 433.234515 0.0000956535 C 193.96367 0.0000956535 0.000118787 193.963647 0.000118787 433.234492 C 0.000118787 672.505337 193.96367 866.468888 433.234515 866.468888 C 672.50536 866.468888 866.468911 672.505337 866.468911 433.234492 C 866.468911 193.963647 672.50536 0.0000956535 433.234515 0.0000956535 Z M 433.234515 0.0000956535 " stroke="#3c4454" stroke-width="60" stroke-opacity="1" stroke-miterlimit="4"/></g></g><path stroke-linecap="butt" transform="matrix(0.75, 0, 0, 0.75, 50.070223, 363.000002)" fill="none" stroke-linejoin="miter" d="M 0.000118787 15.999998 L 866.479328 15.999998 " stroke="#3c4454" stroke-width="32" stroke-opacity="1" stroke-miterlimit="4"/><path stroke-linecap="butt" transform="matrix(0.75, 0.000000000000000132, -0.000000000000000132, 0.75, 428.798982, 281.427693)" fill="none" stroke-linejoin="miter" d="M 0.00239933 15.997452 L 321.79929 15.997452 " stroke="#3c4454" stroke-width="32" stroke-opacity="1" stroke-miterlimit="4"/><path stroke-linecap="butt" transform="matrix(0, -0.75, 0.75, 0, 428.895414, 293.424234)" fill="none" stroke-linejoin="miter" d="M -0.0020634 15.998824 L 290.664617 15.998824 " stroke="#3c4454" stroke-width="32" stroke-opacity="1" stroke-miterlimit="4"/><path stroke-linecap="butt" transform="matrix(0, -0.75, 0.75, 0, 297.097663, 293.424234)" fill="none" stroke-linejoin="miter" d="M -0.0020634 15.999991 L 290.664617 15.999991 " stroke="#3c4454" stroke-width="32" stroke-opacity="1" stroke-miterlimit="4"/><path stroke-linecap="butt" transform="matrix(0.75, 0.000000000000000132, -0.000000000000000132, 0.75, 79.850696, 281.427693)" fill="none" stroke-linejoin="miter" d="M 0.00115486 15.997452 L 321.798046 15.997452 " stroke="#3c4454" stroke-width="32" stroke-opacity="1" stroke-miterlimit="4"/><path stroke-linecap="butt" transform="matrix(-0.75, 0, 0, -0.75, 321.198328, 468.472653)" fill="none" stroke-linejoin="miter" d="M -0.00118794 15.999997 L 321.800911 15.999997 " stroke="#3c4454" stroke-width="32" stroke-opacity="1" stroke-miterlimit="4"/><path stroke-linecap="butt" transform="matrix(0, 0.75, -0.75, 0, 321.097662, 456.476062)" fill="none" stroke-linejoin="miter" d="M 0.000667661 16.000009 L 290.667348 16.000009 " stroke="#3c4454" stroke-width="32" stroke-opacity="1" stroke-miterlimit="4"/><path stroke-linecap="butt" transform="matrix(0, 0.75, -0.75, 0, 452.895413, 456.476062)" fill="none" stroke-linejoin="miter" d="M 0.000667661 16.001176 L 290.667348 16.001176 " stroke="#3c4454" stroke-width="32" stroke-opacity="1" stroke-miterlimit="4"/><path stroke-linecap="butt" transform="matrix(-0.75, 0, 0, -0.75, 670.146642, 468.472653)" fill="none" stroke-linejoin="miter" d="M -0.00239401 15.999997 L 321.799705 15.999997 " stroke="#3c4454" stroke-width="32" stroke-opacity="1" stroke-miterlimit="4"/></svg>